<svg xmlns="http://www.w3.org/2000/svg" viewBox="0 0 656 656" role="img" aria-labelledby="title desc"><title id="title">笃笃戴胜鸟图标</title><desc id="desc">按原图路径化的金色戴胜鸟</desc><defs><linearGradient id="gold" x1="64" y1="26" x2="596" y2="638" gradientUnits="userSpaceOnUse"><stop stop-color="#FFE985"/><stop offset=".55" stop-color="#F4D558"/><stop offset="1" stop-color="#E8BD36"/></linearGradient></defs><path d="M63 287 L69 285 L71 283 L74 282 L76 280 L77 280 L78 279 L80 279 L82 277 L84 277 L85 276 L88 275 L90 273 L91 273 L92 272 L94 272 L95 271 L96 271 L97 270 L98 270 L103 267 L105 267 L110 264 L112 264 L117 261 L119 261 L122 259 L124 259 L125 258 L127 258 L130 256 L132 256 L133 255 L136 255 L137 254 L139 254 L140 253 L143 253 L144 252 L146 252 L147 251 L151 251 L152 250 L156 250 L157 249 L163 249 L164 248 L170 248 L171 247 L194 247 L195 248 L201 248 L202 249 L207 249 L208 250 L211 250 L212 251 L215 251 L216 252 L218 252 L219 253 L221 253 L222 254 L224 254 L225 255 L226 255 L227 256 L228 256 L229 257 L232 258 L234 260 L235 260 L237 262 L238 262 L241 265 L242 265 L249 272 L249 273 L252 276 L253 279 L255 281 L255 282 L256 283 L256 285 L257 286 L257 288 L258 289 L258 292 L259 293 L259 299 L260 300 L260 303 L259 304 L259 314 L258 315 L258 319 L257 320 L257 323 L256 324 L256 326 L255 327 L255 329 L254 330 L254 332 L253 333 L253 335 L251 338 L251 340 L248 345 L248 347 L245 352 L245 354 L243 357 L243 359 L242 360 L242 362 L241 363 L241 366 L240 367 L240 370 L239 371 L239 376 L238 377 L238 388 L237 389 L238 390 L238 400 L239 401 L239 405 L240 406 L240 408 L241 409 L241 412 L243 415 L243 417 L244 418 L244 419 L245 420 L245 421 L246 422 L247 425 L249 427 L249 428 L251 430 L251 431 L254 434 L255 434 L255 424 L254 423 L254 412 L255 411 L255 402 L256 401 L256 397 L257 396 L257 393 L258 392 L258 390 L260 387 L260 385 L261 384 L261 383 L262 382 L262 381 L263 380 L264 377 L266 375 L266 374 L268 372 L268 371 L271 368 L271 367 L281 357 L282 357 L286 353 L287 353 L289 351 L290 351 L291 350 L292 350 L293 349 L294 349 L299 346 L301 346 L302 345 L304 345 L305 344 L307 344 L308 343 L312 343 L313 342 L317 342 L318 341 L329 341 L330 340 L335 340 L336 341 L350 341 L351 342 L356 342 L357 343 L360 343 L361 344 L365 344 L366 345 L369 345 L370 346 L373 346 L374 347 L376 347 L377 348 L379 348 L380 349 L381 349 L382 350 L384 350 L385 351 L386 351 L387 352 L388 352 L393 355 L395 355 L396 356 L397 356 L399 358 L400 358 L401 359 L404 360 L406 362 L407 362 L409 364 L410 364 L412 366 L413 366 L415 368 L416 368 L425 376 L424 377 L423 377 L422 376 L420 376 L417 374 L414 374 L413 373 L411 373 L410 372 L407 372 L406 371 L402 371 L401 370 L396 370 L395 369 L390 369 L389 368 L377 368 L376 367 L357 367 L356 368 L343 368 L342 369 L337 369 L336 370 L331 370 L330 371 L327 371 L326 372 L323 372 L322 373 L320 373 L319 374 L316 374 L315 375 L313 375 L310 377 L308 377 L305 379 L303 379 L302 380 L301 380 L299 382 L296 383 L294 385 L291 386 L288 389 L287 389 L277 399 L277 400 L274 403 L274 404 L272 406 L272 407 L269 412 L269 414 L268 415 L268 417 L267 418 L267 427 L266 428 L267 429 L267 436 L268 437 L268 440 L269 441 L269 443 L270 444 L270 446 L271 447 L271 448 L272 449 L272 450 L273 451 L274 454 L276 456 L276 457 L278 459 L278 460 L281 463 L281 464 L287 470 L288 470 L288 469 L287 468 L287 452 L288 451 L288 447 L289 446 L289 444 L290 443 L290 441 L291 440 L291 439 L292 438 L293 435 L295 433 L295 432 L298 429 L298 428 L304 422 L305 422 L310 417 L311 417 L313 415 L314 415 L315 414 L316 414 L321 411 L323 411 L324 410 L325 410 L326 409 L328 409 L331 407 L334 407 L335 406 L337 406 L338 405 L340 405 L341 404 L344 404 L345 403 L348 403 L349 402 L352 402 L353 401 L357 401 L358 400 L363 400 L364 399 L372 399 L373 398 L382 398 L383 397 L408 397 L409 398 L416 398 L417 399 L422 399 L423 400 L426 400 L427 401 L430 401 L433 403 L435 403 L436 404 L438 404 L443 407 L445 407 L446 408 L447 408 L448 409 L451 410 L453 412 L454 412 L455 413 L456 413 L458 415 L459 415 L462 418 L463 418 L467 422 L468 422 L481 435 L481 436 L480 437 L479 437 L477 435 L476 435 L474 433 L471 432 L466 428 L465 428 L464 427 L463 427 L462 426 L461 426 L460 425 L459 425 L458 424 L457 424 L456 423 L455 423 L454 422 L453 422 L452 421 L451 421 L446 418 L444 418 L443 417 L441 417 L440 416 L438 416 L437 415 L435 415 L434 414 L432 414 L431 413 L427 413 L426 412 L421 412 L420 411 L400 411 L399 412 L395 412 L394 413 L391 413 L390 414 L388 414 L385 416 L383 416 L382 417 L381 417 L380 418 L379 418 L378 419 L375 420 L368 426 L368 428 L370 430 L371 430 L375 434 L376 434 L379 437 L380 437 L383 440 L384 440 L387 443 L388 443 L391 446 L392 446 L394 448 L395 448 L398 451 L399 451 L404 455 L407 456 L412 460 L415 461 L417 463 L418 463 L419 464 L422 465 L424 467 L425 467 L426 468 L427 468 L428 469 L429 469 L430 470 L431 470 L432 471 L435 472 L437 474 L438 474 L439 475 L440 475 L441 476 L442 476 L447 479 L449 479 L450 480 L451 480 L452 481 L453 481 L454 482 L455 482 L460 485 L462 485 L463 486 L464 486 L465 487 L466 487 L471 490 L473 490 L476 492 L478 492 L479 493 L480 493 L485 496 L487 496 L488 497 L489 497 L490 498 L492 498 L497 501 L499 501 L502 503 L504 503 L507 505 L509 505 L514 508 L516 508 L517 509 L518 509 L523 512 L525 512 L526 513 L527 513 L528 514 L531 515 L533 517 L534 517 L540 523 L539 524 L534 524 L533 523 L527 523 L526 522 L522 522 L521 521 L519 521 L518 520 L514 520 L513 519 L510 519 L509 518 L507 518 L506 517 L504 517 L503 516 L500 516 L499 515 L497 515 L496 514 L494 514 L493 513 L491 513 L490 512 L488 512 L485 510 L483 510 L480 508 L478 508 L475 506 L473 506 L470 504 L468 504 L467 503 L466 503 L465 502 L464 502 L463 501 L462 501 L457 498 L455 498 L454 497 L453 497 L452 496 L451 496 L450 495 L449 495 L448 494 L447 494 L446 493 L445 493 L444 492 L443 492 L442 491 L439 490 L437 488 L436 488 L435 487 L432 486 L430 484 L429 484 L428 483 L425 482 L423 480 L420 479 L415 475 L412 474 L410 472 L409 472 L406 469 L405 469 L403 467 L402 467 L400 465 L399 465 L396 462 L395 462 L392 459 L391 459 L388 456 L387 456 L384 453 L383 453 L376 447 L375 447 L370 443 L367 442 L365 440 L364 440 L361 438 L359 438 L356 436 L354 436 L353 435 L350 435 L349 434 L346 434 L345 433 L333 433 L332 434 L328 434 L327 435 L325 435 L324 436 L321 437 L319 439 L318 439 L315 442 L315 443 L312 446 L312 447 L311 448 L311 450 L309 453 L309 466 L310 467 L310 469 L312 472 L312 474 L313 475 L313 476 L315 478 L315 479 L318 482 L318 483 L325 490 L326 490 L329 493 L330 493 L335 497 L336 497 L337 498 L338 498 L339 499 L340 499 L341 500 L342 500 L347 503 L349 503 L350 504 L352 504 L355 506 L357 506 L358 507 L360 507 L361 508 L364 508 L365 509 L367 509 L368 510 L370 510 L371 511 L375 511 L376 512 L379 512 L380 513 L383 513 L384 514 L388 514 L389 515 L393 515 L394 516 L397 516 L398 517 L402 517 L403 518 L407 518 L408 519 L413 519 L414 520 L418 520 L419 521 L423 521 L424 522 L429 522 L430 523 L434 523 L435 524 L440 524 L441 525 L445 525 L446 526 L451 526 L452 527 L456 527 L457 528 L462 528 L463 529 L467 529 L468 530 L473 530 L474 531 L479 531 L480 532 L485 532 L486 533 L490 533 L491 534 L496 534 L497 535 L501 535 L502 536 L505 536 L507 538 L507 539 L508 540 L508 541 L510 543 L511 546 L515 551 L516 554 L518 556 L518 557 L520 559 L520 560 L522 562 L522 563 L524 565 L524 566 L526 568 L526 569 L528 571 L528 572 L532 576 L532 577 L534 579 L534 580 L538 584 L538 585 L541 588 L541 589 L545 593 L545 594 L549 598 L549 599 L554 604 L554 605 L562 613 L562 614 L568 620 L567 621 L564 621 L563 620 L561 620 L560 619 L558 619 L555 617 L553 617 L552 616 L551 616 L550 615 L547 614 L545 612 L543 612 L541 610 L540 610 L539 609 L536 608 L534 606 L531 605 L529 603 L528 603 L526 601 L525 601 L523 599 L522 599 L519 596 L518 596 L514 592 L513 592 L508 587 L507 587 L501 581 L500 581 L494 575 L493 575 L488 570 L487 570 L483 566 L482 566 L480 564 L479 564 L477 562 L476 562 L471 558 L470 558 L469 557 L466 556 L464 554 L463 554 L458 551 L456 551 L455 550 L454 550 L449 547 L447 547 L446 546 L444 546 L443 545 L441 545 L440 544 L438 544 L437 543 L435 543 L434 542 L431 542 L430 541 L427 541 L426 540 L424 540 L423 539 L418 539 L417 538 L414 538 L413 537 L409 537 L408 536 L402 536 L401 535 L396 535 L395 534 L391 534 L390 533 L386 533 L385 532 L380 532 L379 531 L376 531 L375 530 L371 530 L370 529 L366 529 L365 528 L361 528 L360 527 L357 527 L356 526 L353 526 L352 525 L349 525 L348 524 L345 524 L344 523 L341 523 L340 522 L337 522 L336 521 L334 521 L333 520 L331 520 L330 519 L328 519 L327 518 L325 518 L324 517 L322 517 L321 516 L319 516 L316 514 L314 514 L313 513 L311 513 L310 512 L309 512 L304 509 L302 509 L301 508 L300 508 L299 507 L298 507 L297 506 L296 506 L295 505 L294 505 L293 504 L292 504 L291 503 L290 503 L289 502 L288 502 L287 501 L286 501 L285 500 L282 499 L280 497 L277 496 L272 492 L271 492 L270 491 L269 491 L267 489 L266 489 L263 486 L262 486 L259 483 L258 483 L255 480 L254 480 L248 474 L247 474 L234 461 L234 460 L229 455 L229 454 L225 450 L225 449 L221 444 L221 443 L220 442 L219 439 L217 437 L217 436 L216 435 L216 434 L213 429 L213 427 L212 426 L212 424 L211 423 L211 422 L210 421 L210 419 L209 418 L209 415 L208 414 L208 411 L207 410 L207 406 L206 405 L206 398 L205 397 L205 382 L206 381 L206 375 L207 374 L207 369 L208 368 L208 365 L209 364 L209 361 L210 360 L210 358 L211 357 L211 355 L212 354 L212 352 L213 351 L213 349 L214 348 L214 346 L216 343 L216 341 L219 336 L219 334 L220 333 L220 332 L222 329 L222 327 L224 324 L224 322 L225 321 L225 319 L226 318 L226 316 L227 315 L227 312 L228 311 L228 309 L229 308 L229 304 L230 303 L230 299 L231 298 L231 282 L230 281 L230 277 L229 276 L229 274 L228 273 L228 271 L227 270 L227 269 L226 268 L225 265 L223 263 L223 262 L222 262 L220 260 L217 261 L217 262 L216 263 L216 265 L215 266 L216 267 L216 271 L217 272 L217 277 L218 278 L218 292 L217 293 L217 298 L216 299 L216 302 L215 303 L215 305 L214 306 L214 308 L213 309 L213 311 L212 312 L212 314 L210 317 L210 319 L208 322 L208 324 L205 329 L205 331 L204 332 L204 333 L203 334 L203 336 L201 339 L201 341 L200 342 L200 344 L198 347 L198 350 L197 351 L197 353 L196 354 L196 356 L195 357 L195 360 L194 361 L194 364 L193 365 L193 370 L192 371 L192 378 L191 379 L191 399 L192 400 L192 407 L193 408 L193 412 L194 413 L194 416 L195 417 L195 420 L196 421 L196 423 L197 424 L197 426 L198 427 L198 429 L200 432 L200 434 L201 435 L201 436 L202 437 L202 438 L203 439 L203 440 L204 441 L204 442 L205 443 L205 444 L206 445 L206 446 L207 447 L208 450 L210 452 L210 453 L212 455 L212 456 L214 458 L214 459 L220 466 L220 467 L225 472 L225 473 L237 485 L238 485 L245 492 L246 492 L249 495 L250 495 L254 499 L255 499 L257 501 L258 501 L260 503 L261 503 L266 507 L269 508 L271 510 L272 510 L273 511 L276 512 L278 514 L279 514 L280 515 L281 515 L282 516 L283 516 L284 517 L285 517 L286 518 L287 518 L288 519 L289 519 L290 520 L291 520 L296 523 L298 523 L303 526 L305 526 L306 527 L307 527 L308 528 L310 528 L313 530 L315 530 L316 531 L318 531 L319 532 L321 532 L322 533 L324 533 L325 534 L327 534 L328 535 L330 535 L331 536 L334 536 L335 537 L337 537 L338 538 L341 538 L342 539 L345 539 L346 540 L349 540 L350 541 L353 541 L354 542 L358 542 L359 543 L363 543 L364 544 L367 544 L368 545 L373 545 L374 546 L378 546 L379 547 L383 547 L384 548 L389 548 L390 549 L394 549 L395 550 L401 550 L402 551 L407 551 L408 552 L412 552 L413 553 L416 553 L417 554 L420 554 L421 555 L424 555 L425 556 L428 556 L429 557 L432 557 L435 559 L437 559 L438 560 L440 560 L443 562 L445 562 L446 563 L447 563 L448 564 L449 564 L450 565 L451 565 L452 566 L453 566 L454 567 L455 567 L456 568 L457 568 L458 569 L461 570 L466 574 L467 574 L468 575 L469 575 L471 577 L472 577 L475 580 L476 580 L478 582 L479 582 L483 586 L484 586 L489 591 L490 591 L495 596 L496 596 L505 604 L506 604 L509 607 L510 607 L512 609 L513 609 L516 612 L517 612 L519 614 L520 614 L522 616 L523 616 L528 620 L531 621 L533 623 L534 623 L535 624 L536 624 L537 625 L538 625 L539 626 L540 626 L541 627 L542 627 L547 630 L549 630 L550 631 L552 631 L555 633 L557 633 L558 634 L560 634 L561 635 L564 635 L565 636 L568 636 L569 637 L573 637 L574 638 L582 638 L583 639 L595 639 L596 638 L603 638 L604 637 L605 637 L606 638 L607 637 L607 636 L605 636 L602 633 L601 633 L598 630 L597 630 L591 624 L590 624 L589 623 L589 622 L570 603 L570 602 L562 594 L562 593 L558 589 L558 588 L553 583 L553 582 L548 577 L548 576 L540 567 L540 566 L538 564 L538 563 L536 561 L536 560 L533 557 L533 556 L530 553 L530 552 L528 550 L528 549 L526 547 L526 546 L523 543 L523 542 L522 541 L523 540 L526 540 L527 541 L529 541 L530 542 L535 542 L536 543 L541 543 L542 544 L546 544 L547 545 L553 545 L554 546 L560 546 L561 547 L568 547 L569 548 L571 548 L571 546 L568 543 L567 540 L565 538 L565 537 L563 535 L563 534 L561 532 L561 531 L558 528 L557 525 L555 523 L554 520 L552 518 L552 517 L551 516 L550 513 L548 511 L548 510 L547 509 L546 506 L544 504 L544 503 L543 502 L543 501 L542 500 L542 499 L541 498 L541 497 L540 496 L540 495 L539 494 L538 491 L536 489 L535 486 L533 484 L533 483 L532 482 L532 481 L530 479 L529 476 L527 474 L527 473 L525 471 L525 470 L523 468 L523 467 L521 465 L521 464 L519 462 L519 461 L517 459 L517 458 L515 456 L515 455 L512 452 L512 451 L510 449 L510 448 L508 446 L508 445 L505 442 L505 441 L501 437 L501 436 L498 433 L498 432 L495 429 L495 428 L491 424 L491 423 L486 418 L486 417 L482 413 L482 412 L476 406 L476 405 L469 398 L469 397 L468 397 L467 396 L467 395 L456 384 L456 383 L452 379 L451 379 L450 378 L450 377 L449 377 L448 376 L448 375 L445 372 L444 372 L432 360 L431 360 L426 355 L425 355 L419 349 L418 349 L414 345 L413 345 L409 341 L408 341 L405 338 L404 338 L402 336 L401 336 L398 333 L397 333 L395 331 L394 331 L391 328 L390 328 L388 326 L387 326 L384 323 L383 323 L380 320 L379 320 L364 306 L364 305 L358 299 L358 298 L354 294 L354 293 L352 291 L352 290 L349 287 L349 286 L347 284 L347 283 L346 282 L346 281 L345 280 L345 279 L344 278 L344 277 L343 276 L343 275 L340 270 L340 268 L338 265 L338 263 L337 262 L337 260 L336 259 L336 256 L335 255 L335 252 L334 251 L334 248 L333 247 L333 227 L332 226 L332 224 L329 221 L328 221 L327 220 L324 220 L321 223 L321 224 L320 225 L320 227 L319 228 L319 235 L318 236 L318 240 L319 241 L319 250 L320 251 L320 256 L321 257 L321 261 L322 262 L322 264 L323 265 L323 267 L324 268 L324 270 L326 273 L326 275 L329 280 L329 282 L330 283 L330 284 L331 285 L332 288 L334 290 L335 293 L337 295 L337 296 L339 298 L339 299 L341 301 L341 302 L344 305 L344 306 L348 310 L348 311 L361 324 L361 325 L360 326 L359 326 L358 325 L350 325 L349 324 L328 324 L327 325 L317 325 L316 326 L310 326 L309 327 L306 327 L305 328 L302 328 L301 329 L299 329 L298 330 L296 330 L295 331 L293 331 L290 333 L288 333 L286 335 L285 335 L284 336 L281 337 L279 339 L278 339 L275 342 L274 342 L271 345 L270 345 L265 350 L264 349 L264 348 L265 347 L265 345 L267 342 L267 340 L268 339 L268 337 L269 336 L269 334 L270 333 L270 331 L271 330 L271 328 L272 327 L272 323 L273 322 L273 317 L274 316 L274 308 L275 307 L275 304 L274 303 L275 302 L275 298 L274 297 L274 292 L273 291 L273 288 L272 287 L272 283 L271 282 L271 280 L270 279 L270 278 L269 277 L269 276 L268 275 L267 272 L265 270 L264 267 L262 265 L262 264 L258 260 L258 259 L251 252 L250 252 L246 248 L245 248 L240 244 L237 243 L235 241 L233 241 L232 240 L231 240 L226 237 L224 237 L223 236 L221 236 L220 235 L217 235 L216 234 L213 234 L212 233 L208 233 L207 232 L201 232 L200 231 L190 231 L189 230 L187 230 L186 231 L185 230 L181 230 L180 231 L170 231 L169 232 L163 232 L162 233 L158 233 L157 234 L154 234 L153 235 L150 235 L149 236 L146 236 L145 237 L143 237 L142 238 L140 238 L137 240 L134 240 L133 241 L132 241 L129 243 L127 243 L126 244 L125 244 L120 247 L118 247 L117 248 L114 249 L112 251 L109 252 L107 254 L104 255 L102 257 L99 258 L97 260 L96 260 L94 262 L93 262 L91 264 L90 264 L83 270 L82 270 L78 274 L77 274 L71 280 L70 280 Z M567 621 L568 620 L569 621 L568 622 Z M539 524 L540 523 L541 524 L540 525 Z M481 438 L482 437 L483 438 L482 439 Z M480 437 L481 436 L482 437 L481 438 Z M424 377 L425 376 L426 377 L425 378 Z M262 352 L263 351 L264 352 L263 353 Z M263 350 L264 349 L265 350 L264 351 Z M450 148 L449 149 L447 149 L446 150 L443 151 L442 152 L442 153 L440 155 L440 157 L439 158 L439 165 L440 166 L441 169 L444 172 L445 172 L446 173 L448 173 L449 174 L456 174 L457 173 L460 172 L464 168 L464 167 L465 166 L465 157 L464 156 L463 153 L461 151 L460 151 L457 149 L455 149 L454 148 Z M184 98 L182 100 L181 100 L180 101 L180 102 L178 105 L178 107 L177 108 L177 111 L178 112 L178 114 L179 115 L179 116 L182 119 L183 119 L185 121 L193 121 L194 120 L197 119 L199 117 L199 116 L201 113 L201 106 L200 105 L199 102 L196 99 L195 99 L194 98 L192 98 L191 97 L188 97 L187 98 Z M442 95 L441 96 L439 96 L438 97 L437 97 L432 101 L432 102 L429 107 L429 111 L428 112 L428 113 L429 114 L429 118 L430 119 L431 122 L436 127 L437 127 L440 129 L445 129 L446 130 L447 130 L448 129 L451 129 L452 128 L455 127 L457 125 L458 125 L458 124 L461 121 L461 119 L462 118 L462 116 L463 115 L463 109 L462 108 L462 106 L461 105 L460 102 L456 98 L455 98 L453 96 L451 96 L450 95 Z M406 46 L405 47 L402 48 L400 50 L399 50 L398 51 L398 52 L396 54 L396 55 L394 58 L394 63 L393 64 L394 65 L394 69 L395 70 L395 71 L396 72 L397 75 L402 79 L403 79 L406 81 L416 81 L417 80 L419 80 L420 79 L421 79 L423 77 L424 77 L424 76 L427 73 L427 72 L429 69 L429 66 L430 65 L430 63 L429 62 L429 58 L428 57 L428 55 L425 52 L425 51 L420 47 L418 47 L417 46 Z M417 101 L416 100 L415 100 L413 102 L413 103 L404 112 L403 112 L400 115 L399 115 L397 117 L396 117 L395 118 L394 118 L389 121 L387 121 L386 122 L384 122 L383 123 L381 123 L380 124 L376 124 L375 125 L371 125 L370 126 L367 126 L366 127 L361 127 L360 128 L354 128 L353 129 L348 129 L347 130 L342 130 L341 131 L336 131 L335 132 L331 132 L330 133 L326 133 L325 134 L322 134 L321 135 L318 135 L317 136 L313 136 L312 137 L310 137 L309 138 L306 138 L305 139 L303 139 L302 140 L299 140 L296 142 L294 142 L291 144 L289 144 L288 145 L287 145 L286 146 L285 146 L284 147 L283 147 L282 148 L281 148 L280 149 L277 150 L275 152 L273 152 L270 155 L269 155 L267 157 L266 157 L263 160 L262 160 L258 164 L257 164 L252 169 L251 169 L250 168 L251 167 L251 166 L253 164 L253 163 L255 161 L255 160 L259 156 L259 155 L264 150 L264 149 L272 141 L272 140 L279 133 L280 133 L280 132 L282 130 L283 130 L292 121 L293 121 L297 117 L298 117 L305 111 L306 111 L311 107 L314 106 L316 104 L317 104 L318 103 L319 103 L320 102 L321 102 L322 101 L323 101 L324 100 L325 100 L330 97 L332 97 L333 96 L335 96 L336 95 L338 95 L339 94 L342 94 L343 93 L346 93 L347 92 L351 92 L352 91 L356 91 L357 90 L361 90 L362 89 L366 89 L367 88 L371 88 L372 87 L375 87 L376 86 L377 86 L378 85 L379 85 L380 84 L383 83 L387 79 L387 78 L388 77 L388 74 L386 72 L381 72 L380 73 L371 73 L370 74 L363 74 L362 75 L355 75 L354 76 L350 76 L349 77 L345 77 L344 78 L341 78 L340 79 L338 79 L337 80 L334 80 L333 81 L331 81 L328 83 L326 83 L323 85 L321 85 L320 86 L319 86 L318 87 L317 87 L316 88 L315 88 L314 89 L311 90 L309 92 L306 93 L304 95 L301 96 L298 99 L297 99 L295 101 L294 101 L291 104 L290 104 L286 108 L285 108 L280 113 L279 113 L259 133 L259 134 L254 139 L254 140 L250 144 L250 145 L244 152 L244 153 L242 155 L242 156 L240 158 L240 159 L238 161 L238 162 L236 164 L236 165 L234 167 L234 168 L230 173 L229 176 L225 181 L224 184 L222 186 L221 189 L219 191 L219 192 L218 193 L217 196 L215 198 L215 200 L213 202 L212 201 L212 194 L213 193 L213 190 L214 189 L214 186 L215 185 L215 182 L216 181 L216 178 L217 177 L217 175 L218 174 L218 172 L219 171 L219 169 L220 168 L220 166 L221 165 L221 163 L223 160 L223 158 L225 155 L225 153 L226 152 L226 151 L227 150 L227 149 L228 148 L228 147 L229 146 L229 145 L230 144 L230 143 L231 142 L231 141 L232 140 L232 139 L233 138 L233 137 L234 136 L235 133 L237 131 L238 128 L242 123 L243 120 L246 117 L246 116 L248 114 L248 113 L252 109 L252 108 L255 105 L255 104 L265 94 L265 93 L271 87 L272 87 L280 79 L281 79 L290 71 L291 71 L298 65 L301 64 L304 61 L305 61 L308 58 L309 58 L313 54 L314 54 L325 43 L325 42 L328 39 L328 38 L330 36 L331 33 L330 34 L328 34 L325 36 L323 36 L322 37 L321 37 L320 38 L319 38 L318 39 L317 39 L316 40 L315 40 L314 41 L313 41 L312 42 L311 42 L310 43 L309 43 L308 44 L307 44 L306 45 L303 46 L301 48 L300 48 L299 49 L296 50 L294 52 L293 52 L291 54 L290 54 L288 56 L287 56 L285 58 L284 58 L282 60 L281 60 L279 62 L278 62 L274 66 L273 66 L268 71 L267 71 L248 90 L248 91 L242 97 L242 98 L239 101 L239 102 L233 109 L233 110 L229 115 L228 118 L226 120 L226 121 L225 122 L224 125 L222 127 L222 128 L221 129 L221 130 L220 131 L220 132 L219 133 L219 134 L216 139 L216 141 L215 142 L215 143 L212 148 L212 150 L210 153 L210 155 L208 158 L208 160 L207 161 L207 163 L206 164 L206 166 L205 167 L205 170 L204 171 L204 174 L203 175 L203 178 L202 179 L202 183 L201 184 L201 188 L200 189 L200 198 L198 200 L197 199 L197 197 L196 196 L196 193 L195 192 L195 190 L194 189 L194 186 L193 185 L193 182 L192 181 L192 178 L191 177 L191 174 L190 173 L190 168 L189 167 L189 160 L188 159 L188 144 L187 143 L187 140 L185 137 L180 137 L179 138 L178 138 L178 139 L177 140 L177 144 L176 145 L176 158 L177 159 L177 167 L178 168 L178 173 L179 174 L179 176 L180 177 L180 181 L181 182 L181 185 L182 186 L182 188 L183 189 L183 191 L184 192 L184 194 L185 195 L185 197 L186 198 L186 200 L187 201 L187 203 L188 204 L188 206 L189 207 L189 209 L190 210 L190 211 L193 216 L193 219 L194 220 L195 223 L198 226 L199 226 L200 227 L206 227 L207 226 L208 226 L211 223 L212 223 L217 218 L217 217 L218 216 L219 216 L225 210 L226 210 L231 206 L232 206 L237 203 L239 203 L242 201 L245 201 L248 199 L251 199 L252 198 L255 198 L256 197 L262 197 L263 196 L282 196 L283 197 L288 197 L289 198 L292 198 L293 199 L296 199 L297 200 L300 200 L301 201 L303 201 L304 202 L306 202 L311 205 L313 205 L314 206 L315 206 L316 207 L318 207 L323 210 L325 210 L328 212 L330 212 L331 213 L333 213 L334 214 L336 214 L337 215 L340 215 L341 216 L344 216 L345 217 L349 217 L350 218 L356 218 L357 219 L377 219 L378 218 L383 218 L384 217 L389 217 L390 216 L393 216 L394 215 L396 215 L397 214 L400 214 L403 212 L405 212 L410 209 L412 209 L413 208 L416 207 L418 205 L419 205 L420 204 L423 203 L425 201 L426 201 L429 198 L430 198 L439 189 L439 188 L441 186 L441 185 L442 184 L442 180 L441 179 L438 179 L437 180 L435 180 L434 181 L433 181 L431 183 L428 184 L426 186 L425 186 L424 187 L421 188 L419 190 L418 190 L417 191 L416 191 L415 192 L414 192 L409 195 L407 195 L404 197 L402 197 L401 198 L399 198 L396 200 L393 200 L392 201 L389 201 L388 202 L384 202 L383 203 L377 203 L376 204 L361 204 L360 203 L354 203 L353 202 L349 202 L348 201 L346 201 L345 200 L343 200 L340 198 L338 198 L335 196 L333 196 L332 195 L331 195 L330 194 L329 194 L328 193 L327 193 L326 192 L325 192 L324 191 L323 191 L322 190 L321 190 L316 187 L314 187 L309 184 L307 184 L306 183 L305 183 L304 182 L302 182 L301 181 L298 181 L297 180 L293 180 L292 179 L286 179 L285 178 L280 178 L279 177 L280 176 L283 176 L284 175 L290 175 L291 174 L297 174 L298 173 L333 173 L334 174 L349 174 L350 175 L376 175 L377 174 L385 174 L386 173 L390 173 L391 172 L394 172 L395 171 L398 171 L399 170 L401 170 L402 169 L404 169 L405 168 L407 168 L409 166 L410 166 L411 165 L412 165 L413 164 L416 163 L418 161 L419 161 L423 157 L424 157 L424 156 L429 151 L429 150 L430 149 L430 148 L433 143 L433 141 L430 144 L429 144 L427 146 L426 146 L424 148 L421 149 L419 151 L418 151 L417 152 L415 152 L410 155 L408 155 L407 156 L405 156 L404 157 L401 157 L400 158 L397 158 L396 159 L392 159 L391 160 L384 160 L383 161 L356 161 L355 160 L343 160 L342 159 L331 159 L330 158 L307 158 L306 159 L300 159 L299 160 L293 160 L292 161 L287 161 L286 160 L287 159 L288 159 L289 158 L291 158 L296 155 L298 155 L299 154 L301 154 L302 153 L304 153 L305 152 L308 152 L309 151 L312 151 L313 150 L315 150 L316 149 L319 149 L320 148 L324 148 L325 147 L329 147 L330 146 L334 146 L335 145 L339 145 L340 144 L347 144 L348 143 L354 143 L355 142 L360 142 L361 141 L365 141 L366 140 L370 140 L371 139 L375 139 L376 138 L378 138 L379 137 L381 137 L382 136 L384 136 L385 135 L387 135 L390 133 L392 133 L393 132 L394 132 L396 130 L397 130 L398 129 L399 129 L401 127 L402 127 L411 118 L411 117 L413 115 L413 114 L416 109 L416 106 L417 105 Z M212 201 L213 202 L213 204 L212 205 L211 204 L211 202 Z M248 170 L249 169 L250 170 L249 171 Z M249 169 L250 168 L251 169 L250 170 Z M284 161 L285 160 L286 160 L287 161 L286 162 L285 162 Z M365 14 L361 14 L360 13 L359 14 L354 14 L353 15 L350 16 L348 18 L347 18 L346 19 L346 20 L343 23 L343 25 L342 26 L342 29 L341 30 L341 34 L342 35 L342 38 L343 39 L343 40 L345 42 L345 43 L347 45 L347 46 L348 46 L350 48 L351 48 L352 49 L354 49 L355 50 L364 50 L365 49 L367 49 L369 47 L370 47 L375 42 L375 41 L377 39 L377 37 L378 36 L378 28 L377 27 L377 25 L376 24 L375 21 L370 16 L368 16 Z" fill="url(#gold)" fill-rule="evenodd" shape-rendering="geometricPrecision"/></svg>